<?xml version="1.0" encoding="utf-8"?>
<!-- Generator: Adobe Illustrator 25.2.1, SVG Export Plug-In . SVG Version: 6.00 Build 0)  -->
<svg version="1.1" id="Layer_1" xmlns="http://www.w3.org/2000/svg" xmlns:xlink="http://www.w3.org/1999/xlink" x="0px" y="0px"
	 viewBox="0 0 144 144" style="enable-background:new 0 0 144 144;" xml:space="preserve">
<style type="text/css">
	.st0{fill:#FE68B3;}
	.st1{fill:#FEF8FB;}
	.st2{fill:#FE027F;}
	.st3{fill:#FE228F;}
	.st4{fill:#FE87C2;}
	.st5{fill:#FE7DBD;}
	.st6{fill:#FE46A2;}
	.st7{fill:#FE0B84;}
	.st8{fill:#FE2F96;}
	.st9{fill:#FE98CB;}
	.st10{fill:#FE5EAE;}
	.st11{fill:#FE3A9C;}
	.st12{fill:#FE52A8;}
	.st13{fill:#FEB3D8;}
	.st14{fill:#FEA3D0;}
</style>
<g>
	<path class="st0" d="M0,67.1c0.6-2.9,1.2-5.8,1.9-8.8C7.9,30.9,32,8.3,60,4c1.4-0.2,3,0,4.3-0.9c5,0,9.9,0,14.9,0
		c3.1,0.6,6.2,1.2,9.3,1.9c27.5,5.9,50.2,30,54.6,57.9c0.3,1.6,0,3.3,0.9,4.8c0,4.9,0,9.9,0,14.8c-0.6,2.9-1.2,5.8-1.9,8.8
		c-5.9,27.4-30.2,50.2-57.9,54.3c-25.3,3.8-46.9-3.4-64.7-21.7C8.8,112.8,2.7,99.4,0.6,84.1c-0.1-0.6,0.1-1.3-0.5-1.7
		C0,77.3,0,72.2,0,67.1z M71.8,145c38.9,0.1,70.6-31.3,70.7-70c0.1-38.8-31.4-70.4-70.2-70.5C33.2,4.4,1.5,35.8,1.5,74.6
		C1.4,113.4,33,145,71.8,145z"/>
	<path class="st1" d="M71.8,145C33,145,1.4,113.4,1.5,74.6c0-38.8,31.8-70.2,70.8-70.1c38.8,0.1,70.3,31.7,70.2,70.5
		C142.4,113.7,110.7,145.1,71.8,145z M71.7,139.8c35.9,0,65-29,65.1-64.7c0-35.8-29.1-64.8-65-64.8c-35.9,0-65,29-65,64.8
		C6.7,110.8,35.8,139.8,71.7,139.8z"/>
	<path class="st2" d="M71.7,139.8c-35.9,0-65-29-65-64.8c0-35.8,29.1-64.8,65-64.8c35.9,0,65,29.1,65,64.8
		C136.7,110.8,107.6,139.8,71.7,139.8z M40.4,20.6c-2,1.3-4.4,1.9-5.8,3.9c-3,1.3-5.1,3.7-7.2,6.1c-2.5,2.2-4.5,4.8-5.8,7.8
		c-1.3,1.7-2.4,3.5-2.8,5.7c-1.2,1.9-1.7,4-1.9,6.3c-0.9,1.5-0.4,3.2-0.5,4.8c-0.9,1.4,0,2.9,0,4.3c-0.1,2,0,3.9,1,5.7
		c0,1.7,0.6,3.3,1.4,4.8c0.6,2.1,1.2,4.2,2.9,5.7c1.2,2.5,2.4,5,4.8,6.7c2.9,3.3,5.5,6.7,10.6,6.7c23.5-0.1,47,0,70.4-0.1
		c1.9,0,4.1-0.1,5.6-1.5c1.7-1.6,3.3-3.4,5-5.1c2-1.9,3.8-4,4.8-6.7c1.6-1.6,2.2-3.7,2.9-5.8c0.8-1.5,1.5-3,1.5-4.8
		c0.5-1.9,1-3.8,1-5.7c0.3-1.4,0.8-2.9,0-4.3c-0.1-1.6,0.3-3.3-0.5-4.8c-0.6-2.1-1.2-4.2-1.9-6.3c-1.1-1.8-1.2-4.1-2.8-5.7
		c-1.4-2.7-3-5.2-5.3-7.2c-2.3-2.6-4.9-5.1-7.9-7c-1.8-1.5-3.7-2.7-5.9-3.6c-3.7-2.1-7.7-3.5-11.7-5C88,14,83.5,13.3,79,12.9
		C65.3,11.7,52.4,14,40.4,20.6z"/>
	<path class="st3" d="M122.9,75.7c-1,2.7-2.8,4.8-4.8,6.7c-30.5,0-61.1,0-91.6,0c-2.4-1.7-3.6-4.1-4.8-6.7c0.9-0.5,1.8-0.5,2.8-0.5
		c31.9,0,63.8,0,95.7,0C121.1,75.2,122,75.2,122.9,75.7z"/>
	<path class="st4" d="M117.7,31.2c2.3,2,3.9,4.5,5.3,7.2c-33.8,0-67.7,0-101.5,0c1.4-3,3.4-5.6,5.8-7.8c0.3,1.6,1.5,1.1,2.5,1.1
		c28.4,0,56.8,0,85.2,0C115.9,31.7,116.9,31.7,117.7,31.2z"/>
	<path class="st5" d="M21.5,38.4c33.8,0,67.7,0,101.5,0c1.6,1.6,1.7,3.9,2.8,5.7c-0.7,0.8-1.6,0.5-2.5,0.5c-34.1,0-68.1,0-102.2,0
		c-0.8,0-1.8,0.3-2.5-0.5C19.1,41.9,20.2,40.1,21.5,38.4z"/>
	<path class="st6" d="M17.3,65.2c-1-1.8-1-3.8-1-5.7c37.3,0,74.6,0,111.8,0c0,2-0.4,3.9-1,5.7C90.6,65.2,53.9,65.2,17.3,65.2z"/>
	<path class="st0" d="M18.7,44.1c0.7,0.8,1.6,0.5,2.5,0.5c34.1,0,68.1,0,102.2,0c0.8,0,1.8,0.3,2.5-0.5c0.6,2.1,1.2,4.2,1.9,6.3
		c-36.9,0-73.9,0-110.8,0C17,48.2,17.5,46,18.7,44.1z"/>
	<path class="st7" d="M26.4,82.4c30.5,0,61.1,0,91.6,0c-1.7,1.7-3.2,3.5-5,5.1c-1.6,1.5-3.7,1.5-5.6,1.5c-23.5,0.1-47,0-70.4,0.1
		C31.9,89.1,29.3,85.7,26.4,82.4z"/>
	<path class="st8" d="M122.9,75.7c-0.9-0.5-1.8-0.5-2.8-0.5c-31.9,0-63.8,0-95.7,0c-1,0-1.9,0-2.8,0.5c-1.7-1.5-2.3-3.7-2.9-5.7
		c35.7,0,71.3,0,107,0C125.1,72.1,124.5,74.1,122.9,75.7z"/>
	<path class="st9" d="M117.7,31.2c-0.9,0.5-1.8,0.6-2.8,0.5c-28.4,0-56.8,0-85.2,0c-0.9,0-2.2,0.4-2.5-1.1c2.1-2.4,4.2-4.8,7.2-6.1
		c0.9,0.8,1.9,1,3.1,1c22.9,0,45.8,0,68.7,0c1.3,0,2.7,0.1,3.5-1.3C112.9,26.1,115.4,28.6,117.7,31.2z"/>
	<path class="st10" d="M16.8,50.4c36.9,0,73.9,0,110.8,0c0.8,1.5,0.4,3.2,0.5,4.8c-37.3,0-74.6,0-111.9,0
		C16.5,53.6,16,51.9,16.8,50.4z"/>
	<path class="st11" d="M125.7,70c-35.7,0-71.3,0-107,0c-0.8-1.5-1.4-3.1-1.4-4.8c36.6,0,73.3,0,109.9,0
		C127.3,67,126.5,68.5,125.7,70z"/>
	<path class="st12" d="M16.3,55.2c37.3,0,74.6,0,111.9,0c0.8,1.4,0.3,2.9,0,4.3c-37.3,0-74.6,0-111.8,0C16.3,58,15.4,56.6,16.3,55.2
		z"/>
	<path class="st13" d="M40.4,20.6c12.1-6.6,25-8.9,38.6-7.6c4.5,0.4,9.1,1.1,13.3,2.7c4,1.5,8,2.9,11.7,5c-0.9,0.5-1.9,0.7-3,0.7
		c-19.1,0-38.3,0-57.4,0C42.5,21.2,41.4,21.1,40.4,20.6z"/>
	<path class="st14" d="M40.4,20.6c1,0.5,2.1,0.7,3.2,0.7c19.1,0,38.3,0,57.4,0c1.1,0,2.1-0.1,3-0.7c2.2,0.9,4.1,2.1,5.9,3.6
		c-0.8,1.4-2.3,1.3-3.5,1.3c-22.9,0-45.8,0-68.7,0c-1.1,0-2.2-0.2-3.1-1C36,22.4,38.4,21.9,40.4,20.6z"/>
</g>
<g>
	<path d="M120.9,80.2c0-0.4,0.1-0.7,0.3-0.9c0.3-1.9,0.6-3.9,0.8-5.9c-0.7-0.2-0.7-0.9-0.7-2.7c0-1.2,0.1-1.6,0.7-1.7
		c-0.1-1.8-0.2-3.7-0.4-5.5c0,0-0.1,0-0.1,0c-1.3-0.8-0.5-2-0.7-3.1c0-0.4,0-0.7,0.2-0.9c-0.8-1.9-1.4-4-1.9-6
		c-1.3-2-2.5-4.1-3.4-6.3c-3.4-3.4-6.9-6.8-10.5-10C97,29.8,87.2,25.7,76.1,24.7c-0.2,0-0.4-0.1-0.6-0.1h-7.3
		c-3.6,0.4-7.2,0.8-10.6,1.9C38.9,32.4,27,44.7,22.7,64.1c-0.6,2.7-0.6,5.4-0.8,8.1v0.8c0.3,2.4,0.3,4.7,0.6,7.1
		c1.6,10.6,6.4,19.5,14.1,26.9c2.7,2.6,5.4,5.2,8.1,7.8c0.5,0.2,1,0.5,1.5,0.7c1.4,0.7,2.8,1.6,4.2,2.3c1.7,0.9,3.6,1.3,5.5,1.6
		c1.6,0.3,3.3,0.5,5,0.6c0.3,0,0.6,0,0.8,0.1c3,0.2,6,0.2,9,0.5c3,0.3,6,0.5,9,0.5c0.2-0.7,0.6-0.9,1.7-1c5.9-0.6,11.1-3.4,16.1-6.1
		c5.2-2.8,9.6-6.8,13.3-11.4c3.7-4.6,6.6-9.6,8.3-15.2C120,85,121.1,82.8,120.9,80.2z M96.7,70c-1,5.8-4.8,9.1-10,11.1
		c-1.4,0.6-3,0.9-4.5,1.1c-1.4,0.2-1.5,0.6-0.9,1.7c0.9,1.6,1.2,3.4,1.2,5.2c0,3.8,0,7.6,0,11.5c0,1.7-0.2,1.9-1.9,1.9c-2,0-4,0-6,0
		c-2.1,0-4.2,0-6.3,0c-1.1,0-1.5-0.4-1.5-1.5c0-1.6,0-3.2,0-4.8c0-1.2-0.5-1.7-1.7-1.6c-1.6,0.1-3.2,0.2-4.8,0
		c-3.2-0.5-5.6-2.2-7.3-4.9c-1-1.6-2-3.3-3.1-4.9c-0.7-1.1-1.4-2.1-2.5-2.8c-0.3-0.2-0.7-0.3-0.5-0.7c0.2-0.4,0.6-0.3,0.9-0.2
		c2.3,0.2,4.2,1.2,5.6,3.2c0.7,1.1,1.4,2.2,2.4,3.1c2.7,2.5,5.9,3,9.4,2.1c0.9-0.2,1.4-0.8,1.6-1.8c0.2-1.5,0.5-3,1.5-4.2
		c0.6-0.7,0.2-1-0.6-1.2c-2-0.3-4-0.9-5.9-1.6c-6.1-2.4-9-7-9.3-13.4c-0.2-3,0-5.9,0.8-8.9c0.4-1.7,1.1-3.3,2.3-4.6
		c0.7-0.7,0.8-1.5,0.5-2.4c-0.8-2.3-0.7-4.7,0-7.1c0.3-1,0.8-1.3,1.8-0.9c2.1,0.9,3.9,2.2,5.2,4c1.1,1.4,1.2,1.5,2.8,0.7
		c1.2-0.6,2.5-0.7,3.8-0.9c3.8-0.4,7.7-0.5,11.5,0.2c0.9,0.2,1.7,0.3,2.5,0.8c1.2,0.7,1.9,0.3,2.7-0.7c1.2-1.7,2.7-3.1,4.6-4
		c1.7-0.8,2.2-0.6,2.7,1.2c0.6,2.1,0.6,4.2-0.1,6.3c-0.4,1.1-0.3,2,0.6,2.9c1.8,1.9,2.3,4.3,2.6,6.8C97.1,64,97.2,67,96.7,70z"/>
</g>
</svg>
