<svg id="Layer_1" data-name="Layer 1" xmlns="http://www.w3.org/2000/svg" viewBox="0 0 999.25 599.25"><defs><style>.cls-1{fill:#fff;stroke:#000;stroke-miterlimit:10;stroke-width:0.25px;}</style></defs><rect class="cls-1" x="0.13" y="0.13" width="39.96" height="23.96"/><rect class="cls-1" x="40.09" y="0.13" width="39.96" height="23.96"/><rect class="cls-1" x="80.05" y="0.13" width="39.96" height="23.96"/><rect class="cls-1" x="120.01" y="0.13" width="39.96" height="23.96"/><rect class="cls-1" x="159.97" y="0.13" width="39.96" height="23.96"/><rect class="cls-1" x="199.93" y="0.13" width="39.96" height="23.96"/><rect class="cls-1" x="239.89" y="0.13" width="39.96" height="23.96"/><rect class="cls-1" x="279.85" y="0.13" width="39.96" height="23.96"/><rect class="cls-1" x="319.81" y="0.13" width="39.96" height="23.96"/><rect class="cls-1" x="359.77" y="0.13" width="39.96" height="23.96"/><rect class="cls-1" x="399.73" y="0.13" width="39.96" height="23.96"/><rect class="cls-1" x="439.68" y="0.13" width="39.96" height="23.96"/><rect class="cls-1" x="479.64" y="0.13" width="39.96" height="23.96"/><rect class="cls-1" x="519.6" y="0.13" width="39.96" height="23.96"/><rect class="cls-1" x="559.57" y="0.13" width="39.96" height="23.96"/><rect class="cls-1" x="599.52" y="0.13" width="39.96" height="23.96"/><rect class="cls-1" x="639.49" y="0.13" width="39.96" height="23.96"/><rect class="cls-1" x="679.44" y="0.13" width="39.96" height="23.96"/><rect class="cls-1" x="719.41" y="0.13" width="39.96" height="23.96"/><rect class="cls-1" x="759.36" y="0.13" width="39.96" height="23.96"/><rect class="cls-1" x="799.33" y="0.13" width="39.96" height="23.96"/><rect class="cls-1" x="839.28" y="0.13" width="39.96" height="23.96"/><rect class="cls-1" x="879.25" y="0.13" width="39.96" height="23.96"/><rect class="cls-1" x="919.2" y="0.13" width="39.96" height="23.96"/><rect class="cls-1" x="959.17" y="0.13" width="39.96" height="23.96"/><rect class="cls-1" x="0.13" y="24.09" width="39.96" height="23.96"/><rect class="cls-1" x="40.09" y="24.09" width="39.96" height="23.96"/><rect class="cls-1" x="80.05" y="24.09" width="39.96" height="23.96"/><rect class="cls-1" x="120.01" y="24.09" width="39.96" height="23.96"/><rect class="cls-1" x="159.97" y="24.09" width="39.96" height="23.96"/><rect class="cls-1" x="199.93" y="24.09" width="39.96" height="23.96"/><rect class="cls-1" x="239.89" y="24.09" width="39.96" height="23.96"/><rect class="cls-1" x="279.85" y="24.09" width="39.96" height="23.96"/><rect class="cls-1" x="319.81" y="24.09" width="39.96" height="23.96"/><rect class="cls-1" x="359.77" y="24.09" width="39.96" height="23.96"/><rect class="cls-1" x="399.73" y="24.09" width="39.96" height="23.96"/><rect class="cls-1" x="439.68" y="24.09" width="39.96" height="23.96"/><rect class="cls-1" x="479.64" y="24.09" width="39.96" height="23.96"/><rect class="cls-1" x="519.6" y="24.09" width="39.96" height="23.96"/><rect class="cls-1" x="559.57" y="24.09" width="39.96" height="23.96"/><rect class="cls-1" x="599.52" y="24.09" width="39.96" height="23.96"/><rect class="cls-1" x="639.49" y="24.09" width="39.96" height="23.96"/><rect class="cls-1" x="679.44" y="24.09" width="39.96" height="23.96"/><rect class="cls-1" x="719.41" y="24.09" width="39.96" height="23.96"/><rect class="cls-1" x="759.36" y="24.09" width="39.96" height="23.96"/><rect class="cls-1" x="799.33" y="24.09" width="39.96" height="23.96"/><rect class="cls-1" x="839.28" y="24.09" width="39.96" height="23.96"/><rect class="cls-1" x="879.25" y="24.09" width="39.96" height="23.96"/><rect class="cls-1" x="919.2" y="24.09" width="39.96" height="23.96"/><rect class="cls-1" x="959.17" y="24.09" width="39.96" height="23.96"/><rect class="cls-1" x="0.13" y="48.05" width="39.96" height="23.96"/><rect class="cls-1" x="40.09" y="48.05" width="39.96" height="23.96"/><rect class="cls-1" x="80.05" y="48.05" width="39.96" height="23.96"/><rect class="cls-1" x="120.01" y="48.05" width="39.96" height="23.96"/><rect class="cls-1" x="159.97" y="48.05" width="39.96" height="23.96"/><rect class="cls-1" x="199.93" y="48.05" width="39.96" height="23.96"/><rect class="cls-1" x="239.89" y="48.05" width="39.96" height="23.96"/><rect class="cls-1" x="279.85" y="48.05" width="39.96" height="23.96"/><rect class="cls-1" x="319.81" y="48.05" width="39.96" height="23.96"/><rect class="cls-1" x="359.77" y="48.05" width="39.96" height="23.96"/><rect class="cls-1" x="399.73" y="48.05" width="39.96" height="23.96"/><rect class="cls-1" x="439.68" y="48.05" width="39.96" height="23.96"/><rect class="cls-1" x="479.64" y="48.05" width="39.96" height="23.96"/><rect class="cls-1" x="519.6" y="48.05" width="39.96" height="23.96"/><rect class="cls-1" x="559.57" y="48.05" width="39.96" height="23.96"/><rect class="cls-1" x="599.52" y="48.05" width="39.96" height="23.96"/><rect class="cls-1" x="639.49" y="48.05" width="39.96" height="23.96"/><rect class="cls-1" x="679.44" y="48.05" width="39.96" height="23.96"/><rect class="cls-1" x="719.41" y="48.05" width="39.96" height="23.96"/><rect class="cls-1" x="759.36" y="48.05" width="39.96" height="23.96"/><rect class="cls-1" x="799.33" y="48.05" width="39.96" height="23.96"/><rect class="cls-1" x="839.28" y="48.05" width="39.96" height="23.96"/><rect class="cls-1" x="879.25" y="48.05" width="39.96" height="23.96"/><rect class="cls-1" x="919.2" y="48.05" width="39.96" height="23.96"/><rect class="cls-1" x="959.17" y="48.05" width="39.96" height="23.96"/><rect class="cls-1" x="0.13" y="72.01" width="39.96" height="23.96"/><rect class="cls-1" x="40.09" y="72.01" width="39.96" height="23.96"/><rect class="cls-1" x="80.05" y="72.01" width="39.96" height="23.96"/><rect class="cls-1" x="120.01" y="72.01" width="39.96" height="23.96"/><rect class="cls-1" x="159.97" y="72.01" width="39.96" height="23.96"/><rect class="cls-1" x="199.93" y="72.01" width="39.96" height="23.96"/><rect class="cls-1" x="239.89" y="72.01" width="39.96" height="23.96"/><rect class="cls-1" x="279.85" y="72.01" width="39.96" height="23.96"/><rect class="cls-1" x="319.81" y="72.01" width="39.96" height="23.96"/><rect class="cls-1" x="359.77" y="72.01" width="39.96" height="23.96"/><rect class="cls-1" x="399.73" y="72.01" width="39.96" height="23.96"/><rect class="cls-1" x="439.68" y="72.01" width="39.96" height="23.96"/><rect class="cls-1" x="479.64" y="72.01" width="39.96" height="23.96"/><rect class="cls-1" x="519.6" y="72.01" width="39.96" height="23.96"/><rect class="cls-1" x="559.57" y="72.01" width="39.96" height="23.96"/><rect class="cls-1" x="599.52" y="72.01" width="39.96" height="23.96"/><rect class="cls-1" x="639.49" y="72.01" width="39.96" height="23.96"/><rect class="cls-1" x="679.44" y="72.01" width="39.96" height="23.96"/><rect class="cls-1" x="719.41" y="72.01" width="39.96" height="23.96"/><rect class="cls-1" x="759.36" y="72.01" width="39.96" height="23.96"/><rect class="cls-1" x="799.33" y="72.01" width="39.96" height="23.96"/><rect class="cls-1" x="839.28" y="72.01" width="39.96" height="23.96"/><rect class="cls-1" x="879.25" y="72.01" width="39.96" height="23.96"/><rect class="cls-1" x="919.2" y="72.01" width="39.96" height="23.96"/><rect class="cls-1" x="959.17" y="72.01" width="39.96" height="23.96"/><rect class="cls-1" x="0.13" y="95.97" width="39.96" height="23.96"/><rect class="cls-1" x="40.09" y="95.97" width="39.96" height="23.96"/><rect class="cls-1" x="80.05" y="95.97" width="39.96" height="23.96"/><rect class="cls-1" x="120.01" y="95.97" width="39.96" height="23.96"/><rect class="cls-1" x="159.97" y="95.97" width="39.96" height="23.96"/><rect class="cls-1" x="199.93" y="95.97" width="39.96" height="23.96"/><rect class="cls-1" x="239.89" y="95.97" width="39.96" height="23.96"/><rect class="cls-1" x="279.85" y="95.97" width="39.96" height="23.96"/><rect class="cls-1" x="319.81" y="95.97" width="39.96" height="23.96"/><rect class="cls-1" x="359.77" y="95.97" width="39.96" height="23.96"/><rect class="cls-1" x="399.73" y="95.97" width="39.96" height="23.96"/><rect class="cls-1" x="439.68" y="95.97" width="39.96" height="23.96"/><rect class="cls-1" x="479.64" y="95.97" width="39.96" height="23.96"/><rect class="cls-1" x="519.6" y="95.97" width="39.96" height="23.96"/><rect class="cls-1" x="559.57" y="95.97" width="39.96" height="23.96"/><rect class="cls-1" x="599.52" y="95.97" width="39.96" height="23.96"/><rect class="cls-1" x="639.49" y="95.97" width="39.96" height="23.96"/><rect class="cls-1" x="679.44" y="95.97" width="39.96" height="23.96"/><rect class="cls-1" x="719.41" y="95.97" width="39.96" height="23.96"/><rect class="cls-1" x="759.36" y="95.97" width="39.96" height="23.96"/><rect class="cls-1" x="799.33" y="95.97" width="39.96" height="23.96"/><rect class="cls-1" x="839.28" y="95.97" width="39.96" height="23.96"/><rect class="cls-1" x="879.25" y="95.97" width="39.96" height="23.96"/><rect class="cls-1" x="919.2" y="95.97" width="39.96" height="23.96"/><rect class="cls-1" x="959.17" y="95.97" width="39.96" height="23.96"/><rect class="cls-1" x="0.13" y="119.93" width="39.96" height="23.96"/><rect class="cls-1" x="40.09" y="119.93" width="39.96" height="23.96"/><rect class="cls-1" x="80.05" y="119.93" width="39.96" height="23.96"/><rect class="cls-1" x="120.01" y="119.93" width="39.96" height="23.96"/><rect class="cls-1" x="159.97" y="119.93" width="39.96" height="23.96"/><rect class="cls-1" x="199.93" y="119.93" width="39.96" height="23.96"/><rect class="cls-1" x="239.89" y="119.93" width="39.96" height="23.96"/><rect class="cls-1" x="279.85" y="119.93" width="39.96" height="23.96"/><rect class="cls-1" x="319.81" y="119.93" width="39.96" height="23.96"/><rect class="cls-1" x="359.77" y="119.93" width="39.96" height="23.96"/><rect class="cls-1" x="399.73" y="119.93" width="39.96" height="23.96"/><rect class="cls-1" x="439.68" y="119.93" width="39.96" height="23.96"/><rect class="cls-1" x="479.64" y="119.93" width="39.96" height="23.96"/><rect class="cls-1" x="519.6" y="119.93" width="39.96" height="23.96"/><rect class="cls-1" x="559.57" y="119.93" width="39.96" height="23.96"/><rect class="cls-1" x="599.52" y="119.93" width="39.96" height="23.96"/><rect class="cls-1" x="639.49" y="119.93" width="39.96" height="23.96"/><rect class="cls-1" x="679.44" y="119.93" width="39.96" height="23.96"/><rect class="cls-1" x="719.41" y="119.93" width="39.96" height="23.96"/><rect class="cls-1" x="759.36" y="119.93" width="39.96" height="23.96"/><rect class="cls-1" x="799.33" y="119.93" width="39.96" height="23.96"/><rect class="cls-1" x="839.28" y="119.93" width="39.96" height="23.96"/><rect class="cls-1" x="879.25" y="119.93" width="39.96" height="23.96"/><rect class="cls-1" x="919.2" y="119.93" width="39.96" height="23.96"/><rect class="cls-1" x="959.17" y="119.93" width="39.96" height="23.96"/><rect class="cls-1" x="0.13" y="143.89" width="39.96" height="23.96"/><rect class="cls-1" x="40.09" y="143.89" width="39.96" height="23.96"/><rect class="cls-1" x="80.05" y="143.89" width="39.96" height="23.96"/><rect class="cls-1" x="120.01" y="143.89" width="39.96" height="23.96"/><rect class="cls-1" x="159.97" y="143.89" width="39.96" height="23.96"/><rect class="cls-1" x="199.93" y="143.89" width="39.96" height="23.96"/><rect class="cls-1" x="239.89" y="143.89" width="39.96" height="23.96"/><rect class="cls-1" x="279.85" y="143.89" width="39.96" height="23.96"/><rect class="cls-1" x="319.81" y="143.89" width="39.96" height="23.96"/><rect class="cls-1" x="359.77" y="143.89" width="39.96" height="23.96"/><rect class="cls-1" x="399.73" y="143.89" width="39.96" height="23.96"/><rect class="cls-1" x="439.68" y="143.89" width="39.96" height="23.96"/><rect class="cls-1" x="479.64" y="143.89" width="39.96" height="23.96"/><rect class="cls-1" x="519.6" y="143.89" width="39.96" height="23.96"/><rect class="cls-1" x="559.57" y="143.89" width="39.96" height="23.96"/><rect class="cls-1" x="599.52" y="143.89" width="39.96" height="23.96"/><rect class="cls-1" x="639.49" y="143.89" width="39.96" height="23.96"/><rect class="cls-1" x="679.44" y="143.89" width="39.96" height="23.96"/><rect class="cls-1" x="719.41" y="143.89" width="39.96" height="23.96"/><rect class="cls-1" x="759.36" y="143.89" width="39.96" height="23.96"/><rect class="cls-1" x="799.33" y="143.89" width="39.96" height="23.96"/><rect class="cls-1" x="839.28" y="143.89" width="39.96" height="23.96"/><rect class="cls-1" x="879.25" y="143.89" width="39.96" height="23.96"/><rect class="cls-1" x="919.2" y="143.89" width="39.96" height="23.96"/><rect class="cls-1" x="959.17" y="143.89" width="39.96" height="23.96"/><rect class="cls-1" x="0.13" y="167.85" width="39.96" height="23.96"/><rect class="cls-1" x="40.09" y="167.85" width="39.96" height="23.96"/><rect class="cls-1" x="80.05" y="167.85" width="39.96" height="23.96"/><rect class="cls-1" x="120.01" y="167.85" width="39.96" height="23.96"/><rect class="cls-1" x="159.97" y="167.85" width="39.96" height="23.96"/><rect class="cls-1" x="199.93" y="167.85" width="39.96" height="23.96"/><rect class="cls-1" x="239.89" y="167.85" width="39.96" height="23.96"/><rect class="cls-1" x="279.85" y="167.85" width="39.96" height="23.96"/><rect class="cls-1" x="319.81" y="167.85" width="39.96" height="23.96"/><rect class="cls-1" x="359.77" y="167.85" width="39.96" height="23.96"/><rect class="cls-1" x="399.73" y="167.85" width="39.96" height="23.96"/><rect class="cls-1" x="439.68" y="167.85" width="39.96" height="23.96"/><rect class="cls-1" x="479.64" y="167.85" width="39.96" height="23.96"/><rect class="cls-1" x="519.6" y="167.85" width="39.96" height="23.96"/><rect class="cls-1" x="559.57" y="167.85" width="39.96" height="23.96"/><rect class="cls-1" x="599.52" y="167.85" width="39.96" height="23.96"/><rect class="cls-1" x="639.49" y="167.85" width="39.96" height="23.96"/><rect class="cls-1" x="679.44" y="167.85" width="39.96" height="23.96"/><rect class="cls-1" x="719.41" y="167.85" width="39.96" height="23.96"/><rect class="cls-1" x="759.36" y="167.85" width="39.96" height="23.96"/><rect class="cls-1" x="799.33" y="167.85" width="39.96" height="23.96"/><rect class="cls-1" x="839.28" y="167.85" width="39.96" height="23.96"/><rect class="cls-1" x="879.25" y="167.85" width="39.96" height="23.96"/><rect class="cls-1" x="919.2" y="167.85" width="39.96" height="23.96"/><rect class="cls-1" x="959.17" y="167.85" width="39.96" height="23.96"/><rect class="cls-1" x="0.13" y="191.81" width="39.96" height="23.96"/><rect class="cls-1" x="40.09" y="191.81" width="39.96" height="23.96"/><rect class="cls-1" x="80.05" y="191.81" width="39.96" height="23.96"/><rect class="cls-1" x="120.01" y="191.81" width="39.96" height="23.96"/><rect class="cls-1" x="159.97" y="191.81" width="39.96" height="23.96"/><rect class="cls-1" x="199.93" y="191.81" width="39.96" height="23.96"/><rect class="cls-1" x="239.89" y="191.81" width="39.96" height="23.96"/><rect class="cls-1" x="279.85" y="191.81" width="39.96" height="23.96"/><rect class="cls-1" x="319.81" y="191.81" width="39.96" height="23.96"/><rect class="cls-1" x="359.77" y="191.81" width="39.96" height="23.96"/><rect class="cls-1" x="399.73" y="191.81" width="39.96" height="23.96"/><rect class="cls-1" x="439.68" y="191.81" width="39.96" height="23.96"/><rect class="cls-1" x="479.64" y="191.81" width="39.96" height="23.96"/><rect class="cls-1" x="519.6" y="191.81" width="39.96" height="23.96"/><rect class="cls-1" x="559.57" y="191.81" width="39.96" height="23.96"/><rect class="cls-1" x="599.52" y="191.81" width="39.96" height="23.96"/><rect class="cls-1" x="639.49" y="191.81" width="39.96" height="23.96"/><rect class="cls-1" x="679.44" y="191.81" width="39.96" height="23.96"/><rect class="cls-1" x="719.41" y="191.81" width="39.96" height="23.96"/><rect class="cls-1" x="759.36" y="191.81" width="39.96" height="23.96"/><rect class="cls-1" x="799.33" y="191.81" width="39.96" height="23.96"/><rect class="cls-1" x="839.28" y="191.81" width="39.96" height="23.96"/><rect class="cls-1" x="879.25" y="191.81" width="39.96" height="23.96"/><rect class="cls-1" x="919.2" y="191.81" width="39.96" height="23.96"/><rect class="cls-1" x="959.17" y="191.81" width="39.96" height="23.96"/><rect class="cls-1" x="0.13" y="215.77" width="39.96" height="23.96"/><rect class="cls-1" x="40.09" y="215.77" width="39.96" height="23.96"/><rect class="cls-1" x="80.05" y="215.77" width="39.96" height="23.96"/><rect class="cls-1" x="120.01" y="215.77" width="39.96" height="23.96"/><rect class="cls-1" x="159.97" y="215.77" width="39.96" height="23.96"/><rect class="cls-1" x="199.93" y="215.77" width="39.96" height="23.96"/><rect class="cls-1" x="239.89" y="215.77" width="39.96" height="23.96"/><rect class="cls-1" x="279.85" y="215.77" width="39.96" height="23.96"/><rect class="cls-1" x="319.81" y="215.77" width="39.96" height="23.96"/><rect class="cls-1" x="359.77" y="215.77" width="39.96" height="23.96"/><rect class="cls-1" x="399.73" y="215.77" width="39.96" height="23.96"/><rect class="cls-1" x="439.68" y="215.77" width="39.96" height="23.96"/><rect class="cls-1" x="479.64" y="215.77" width="39.96" height="23.96"/><rect class="cls-1" x="519.6" y="215.77" width="39.96" height="23.96"/><rect class="cls-1" x="559.57" y="215.77" width="39.96" height="23.96"/><rect class="cls-1" x="599.52" y="215.77" width="39.96" height="23.96"/><rect class="cls-1" x="639.49" y="215.77" width="39.96" height="23.96"/><rect class="cls-1" x="679.44" y="215.77" width="39.96" height="23.96"/><rect class="cls-1" x="719.41" y="215.77" width="39.96" height="23.96"/><rect class="cls-1" x="759.36" y="215.77" width="39.96" height="23.96"/><rect class="cls-1" x="799.33" y="215.77" width="39.96" height="23.96"/><rect class="cls-1" x="839.28" y="215.77" width="39.96" height="23.96"/><rect class="cls-1" x="879.25" y="215.77" width="39.96" height="23.96"/><rect class="cls-1" x="919.2" y="215.77" width="39.96" height="23.96"/><rect class="cls-1" x="959.17" y="215.77" width="39.96" height="23.96"/><rect class="cls-1" x="0.13" y="239.73" width="39.96" height="23.96"/><rect class="cls-1" x="40.09" y="239.73" width="39.96" height="23.96"/><rect class="cls-1" x="80.05" y="239.73" width="39.96" height="23.96"/><rect class="cls-1" x="120.01" y="239.73" width="39.96" height="23.96"/><rect class="cls-1" x="159.97" y="239.73" width="39.96" height="23.96"/><rect class="cls-1" x="199.93" y="239.73" width="39.96" height="23.96"/><rect class="cls-1" x="239.89" y="239.73" width="39.96" height="23.96"/><rect class="cls-1" x="279.85" y="239.73" width="39.96" height="23.96"/><rect class="cls-1" x="319.81" y="239.73" width="39.96" height="23.96"/><rect class="cls-1" x="359.77" y="239.73" width="39.96" height="23.96"/><rect class="cls-1" x="399.73" y="239.73" width="39.96" height="23.96"/><rect class="cls-1" x="439.68" y="239.73" width="39.96" height="23.96"/><rect class="cls-1" x="479.64" y="239.73" width="39.96" height="23.96"/><rect class="cls-1" x="519.6" y="239.73" width="39.96" height="23.96"/><rect class="cls-1" x="559.57" y="239.73" width="39.96" height="23.96"/><rect class="cls-1" x="599.52" y="239.73" width="39.96" height="23.96"/><rect class="cls-1" x="639.49" y="239.73" width="39.96" height="23.96"/><rect class="cls-1" x="679.44" y="239.73" width="39.96" height="23.96"/><rect class="cls-1" x="719.41" y="239.73" width="39.96" height="23.96"/><rect class="cls-1" x="759.36" y="239.73" width="39.96" height="23.96"/><rect class="cls-1" x="799.33" y="239.73" width="39.96" height="23.96"/><rect class="cls-1" x="839.28" y="239.73" width="39.96" height="23.96"/><rect class="cls-1" x="879.25" y="239.73" width="39.96" height="23.96"/><rect class="cls-1" x="919.2" y="239.73" width="39.96" height="23.96"/><rect class="cls-1" x="959.17" y="239.73" width="39.96" height="23.96"/><rect class="cls-1" x="0.13" y="263.69" width="39.96" height="23.96"/><rect class="cls-1" x="40.09" y="263.69" width="39.96" height="23.96"/><rect class="cls-1" x="80.05" y="263.69" width="39.96" height="23.96"/><rect class="cls-1" x="120.01" y="263.69" width="39.96" height="23.96"/><rect class="cls-1" x="159.97" y="263.69" width="39.96" height="23.96"/><rect class="cls-1" x="199.93" y="263.69" width="39.96" height="23.96"/><rect class="cls-1" x="239.89" y="263.69" width="39.96" height="23.96"/><rect class="cls-1" x="279.85" y="263.69" width="39.96" height="23.96"/><rect class="cls-1" x="319.81" y="263.69" width="39.96" height="23.96"/><rect class="cls-1" x="359.77" y="263.69" width="39.96" height="23.96"/><rect class="cls-1" x="399.73" y="263.69" width="39.96" height="23.96"/><rect class="cls-1" x="439.68" y="263.69" width="39.96" height="23.96"/><rect class="cls-1" x="479.64" y="263.69" width="39.96" height="23.96"/><rect class="cls-1" x="519.6" y="263.69" width="39.96" height="23.96"/><rect class="cls-1" x="559.57" y="263.69" width="39.96" height="23.96"/><rect class="cls-1" x="599.52" y="263.69" width="39.96" height="23.96"/><rect class="cls-1" x="639.49" y="263.69" width="39.96" height="23.96"/><rect class="cls-1" x="679.44" y="263.69" width="39.96" height="23.96"/><rect class="cls-1" x="719.41" y="263.69" width="39.96" height="23.96"/><rect class="cls-1" x="759.36" y="263.69" width="39.96" height="23.96"/><rect class="cls-1" x="799.33" y="263.69" width="39.96" height="23.96"/><rect class="cls-1" x="839.28" y="263.69" width="39.96" height="23.96"/><rect class="cls-1" x="879.25" y="263.69" width="39.96" height="23.96"/><rect class="cls-1" x="919.2" y="263.69" width="39.96" height="23.96"/><rect class="cls-1" x="959.17" y="263.69" width="39.96" height="23.96"/><rect class="cls-1" x="0.13" y="287.65" width="39.96" height="23.96"/><rect class="cls-1" x="40.09" y="287.65" width="39.96" height="23.96"/><rect class="cls-1" x="80.05" y="287.65" width="39.96" height="23.96"/><rect class="cls-1" x="120.01" y="287.65" width="39.96" height="23.96"/><rect class="cls-1" x="159.97" y="287.65" width="39.96" height="23.96"/><rect class="cls-1" x="199.93" y="287.65" width="39.96" height="23.96"/><rect class="cls-1" x="239.89" y="287.65" width="39.96" height="23.96"/><rect class="cls-1" x="279.85" y="287.65" width="39.96" height="23.96"/><rect class="cls-1" x="319.81" y="287.65" width="39.96" height="23.96"/><rect class="cls-1" x="359.77" y="287.65" width="39.96" height="23.96"/><rect class="cls-1" x="399.73" y="287.65" width="39.96" height="23.96"/><rect class="cls-1" x="439.68" y="287.65" width="39.96" height="23.96"/><rect class="cls-1" x="479.64" y="287.65" width="39.96" height="23.96"/><rect class="cls-1" x="519.6" y="287.65" width="39.96" height="23.96"/><rect class="cls-1" x="559.57" y="287.65" width="39.96" height="23.96"/><rect class="cls-1" x="599.52" y="287.65" width="39.96" height="23.96"/><rect class="cls-1" x="639.49" y="287.65" width="39.96" height="23.96"/><rect class="cls-1" x="679.44" y="287.65" width="39.96" height="23.96"/><rect class="cls-1" x="719.41" y="287.65" width="39.96" height="23.96"/><rect class="cls-1" x="759.36" y="287.65" width="39.96" height="23.96"/><rect class="cls-1" x="799.33" y="287.65" width="39.96" height="23.96"/><rect class="cls-1" x="839.28" y="287.65" width="39.96" height="23.96"/><rect class="cls-1" x="879.25" y="287.65" width="39.96" height="23.96"/><rect class="cls-1" x="919.2" y="287.65" width="39.96" height="23.96"/><rect class="cls-1" x="959.17" y="287.65" width="39.96" height="23.96"/><rect class="cls-1" x="0.13" y="311.6" width="39.96" height="23.96"/><rect class="cls-1" x="40.09" y="311.6" width="39.96" height="23.96"/><rect class="cls-1" x="80.05" y="311.6" width="39.96" height="23.96"/><rect class="cls-1" x="120.01" y="311.6" width="39.96" height="23.96"/><rect class="cls-1" x="159.97" y="311.6" width="39.96" height="23.96"/><rect class="cls-1" x="199.93" y="311.6" width="39.96" height="23.96"/><rect class="cls-1" x="239.89" y="311.6" width="39.96" height="23.96"/><rect class="cls-1" x="279.85" y="311.6" width="39.96" height="23.96"/><rect class="cls-1" x="319.81" y="311.6" width="39.96" height="23.96"/><rect class="cls-1" x="359.77" y="311.6" width="39.96" height="23.96"/><rect class="cls-1" x="399.73" y="311.6" width="39.96" height="23.96"/><rect class="cls-1" x="439.68" y="311.6" width="39.96" height="23.96"/><rect class="cls-1" x="479.64" y="311.6" width="39.96" height="23.96"/><rect class="cls-1" x="519.6" y="311.6" width="39.96" height="23.96"/><rect class="cls-1" x="559.57" y="311.6" width="39.96" height="23.96"/><rect class="cls-1" x="599.52" y="311.6" width="39.96" height="23.96"/><rect class="cls-1" x="639.49" y="311.6" width="39.96" height="23.96"/><rect class="cls-1" x="679.44" y="311.6" width="39.96" height="23.96"/><rect class="cls-1" x="719.41" y="311.6" width="39.96" height="23.96"/><rect class="cls-1" x="759.36" y="311.6" width="39.96" height="23.96"/><rect class="cls-1" x="799.33" y="311.6" width="39.96" height="23.96"/><rect class="cls-1" x="839.28" y="311.6" width="39.96" height="23.96"/><rect class="cls-1" x="879.25" y="311.6" width="39.96" height="23.96"/><rect class="cls-1" x="919.2" y="311.6" width="39.96" height="23.96"/><rect class="cls-1" x="959.17" y="311.6" width="39.96" height="23.96"/><rect class="cls-1" x="0.13" y="335.57" width="39.96" height="23.96"/><rect class="cls-1" x="40.09" y="335.57" width="39.96" height="23.96"/><rect class="cls-1" x="80.05" y="335.57" width="39.96" height="23.96"/><rect class="cls-1" x="120.01" y="335.57" width="39.96" height="23.96"/><rect class="cls-1" x="159.97" y="335.57" width="39.96" height="23.96"/><rect class="cls-1" x="199.93" y="335.57" width="39.96" height="23.96"/><rect class="cls-1" x="239.89" y="335.57" width="39.96" height="23.96"/><rect class="cls-1" x="279.85" y="335.57" width="39.96" height="23.96"/><rect class="cls-1" x="319.81" y="335.57" width="39.96" height="23.96"/><rect class="cls-1" x="359.77" y="335.57" width="39.96" height="23.96"/><rect class="cls-1" x="399.73" y="335.57" width="39.96" height="23.96"/><rect class="cls-1" x="439.68" y="335.57" width="39.96" height="23.96"/><rect class="cls-1" x="479.64" y="335.57" width="39.96" height="23.96"/><rect class="cls-1" x="519.6" y="335.57" width="39.96" height="23.96"/><rect class="cls-1" x="559.57" y="335.57" width="39.96" height="23.96"/><rect class="cls-1" x="599.52" y="335.57" width="39.96" height="23.96"/><rect class="cls-1" x="639.49" y="335.57" width="39.96" height="23.96"/><rect class="cls-1" x="679.44" y="335.57" width="39.96" height="23.96"/><rect class="cls-1" x="719.41" y="335.57" width="39.96" height="23.96"/><rect class="cls-1" x="759.36" y="335.57" width="39.96" height="23.96"/><rect class="cls-1" x="799.33" y="335.57" width="39.96" height="23.96"/><rect class="cls-1" x="839.28" y="335.57" width="39.96" height="23.96"/><rect class="cls-1" x="879.25" y="335.57" width="39.96" height="23.96"/><rect class="cls-1" x="919.2" y="335.57" width="39.96" height="23.96"/><rect class="cls-1" x="959.17" y="335.57" width="39.96" height="23.96"/><rect class="cls-1" x="0.13" y="359.52" width="39.96" height="23.96"/><rect class="cls-1" x="40.09" y="359.52" width="39.96" height="23.96"/><rect class="cls-1" x="80.05" y="359.52" width="39.96" height="23.96"/><rect class="cls-1" x="120.01" y="359.52" width="39.96" height="23.96"/><rect class="cls-1" x="159.97" y="359.52" width="39.96" height="23.96"/><rect class="cls-1" x="199.93" y="359.52" width="39.96" height="23.96"/><rect class="cls-1" x="239.89" y="359.52" width="39.96" height="23.96"/><rect class="cls-1" x="279.85" y="359.52" width="39.96" height="23.96"/><rect class="cls-1" x="319.81" y="359.52" width="39.96" height="23.96"/><rect class="cls-1" x="359.77" y="359.52" width="39.96" height="23.96"/><rect class="cls-1" x="399.73" y="359.52" width="39.96" height="23.96"/><rect class="cls-1" x="439.68" y="359.52" width="39.96" height="23.96"/><rect class="cls-1" x="479.64" y="359.52" width="39.96" height="23.96"/><rect class="cls-1" x="519.6" y="359.52" width="39.96" height="23.96"/><rect class="cls-1" x="559.57" y="359.52" width="39.96" height="23.96"/><rect class="cls-1" x="599.52" y="359.52" width="39.96" height="23.96"/><rect class="cls-1" x="639.49" y="359.52" width="39.96" height="23.96"/><rect class="cls-1" x="679.44" y="359.52" width="39.96" height="23.96"/><rect class="cls-1" x="719.41" y="359.52" width="39.96" height="23.96"/><rect class="cls-1" x="759.36" y="359.52" width="39.96" height="23.96"/><rect class="cls-1" x="799.33" y="359.52" width="39.96" height="23.96"/><rect class="cls-1" x="839.28" y="359.52" width="39.96" height="23.96"/><rect class="cls-1" x="879.25" y="359.52" width="39.96" height="23.96"/><rect class="cls-1" x="919.2" y="359.52" width="39.96" height="23.96"/><rect class="cls-1" x="959.17" y="359.52" width="39.96" height="23.96"/><rect class="cls-1" x="0.13" y="383.49" width="39.96" height="23.96"/><rect class="cls-1" x="40.09" y="383.49" width="39.96" height="23.96"/><rect class="cls-1" x="80.05" y="383.49" width="39.96" height="23.96"/><rect class="cls-1" x="120.01" y="383.49" width="39.96" height="23.96"/><rect class="cls-1" x="159.97" y="383.49" width="39.96" height="23.96"/><rect class="cls-1" x="199.93" y="383.49" width="39.96" height="23.96"/><rect class="cls-1" x="239.89" y="383.49" width="39.96" height="23.96"/><rect class="cls-1" x="279.85" y="383.49" width="39.96" height="23.96"/><rect class="cls-1" x="319.81" y="383.49" width="39.96" height="23.96"/><rect class="cls-1" x="359.77" y="383.49" width="39.96" height="23.96"/><rect class="cls-1" x="399.73" y="383.49" width="39.96" height="23.96"/><rect class="cls-1" x="439.68" y="383.49" width="39.96" height="23.96"/><rect class="cls-1" x="479.64" y="383.49" width="39.96" height="23.96"/><rect class="cls-1" x="519.6" y="383.49" width="39.96" height="23.96"/><rect class="cls-1" x="559.57" y="383.49" width="39.96" height="23.96"/><rect class="cls-1" x="599.52" y="383.49" width="39.96" height="23.96"/><rect class="cls-1" x="639.49" y="383.49" width="39.96" height="23.96"/><rect class="cls-1" x="679.44" y="383.49" width="39.96" height="23.96"/><rect class="cls-1" x="719.41" y="383.49" width="39.96" height="23.96"/><rect class="cls-1" x="759.36" y="383.49" width="39.96" height="23.96"/><rect class="cls-1" x="799.33" y="383.49" width="39.96" height="23.96"/><rect class="cls-1" x="839.28" y="383.49" width="39.96" height="23.96"/><rect class="cls-1" x="879.25" y="383.49" width="39.96" height="23.96"/><rect class="cls-1" x="919.2" y="383.49" width="39.96" height="23.96"/><rect class="cls-1" x="959.17" y="383.49" width="39.96" height="23.96"/><rect class="cls-1" x="0.13" y="407.44" width="39.96" height="23.96"/><rect class="cls-1" x="40.09" y="407.44" width="39.96" height="23.96"/><rect class="cls-1" x="80.05" y="407.44" width="39.96" height="23.96"/><rect class="cls-1" x="120.01" y="407.44" width="39.96" height="23.96"/><rect class="cls-1" x="159.97" y="407.44" width="39.96" height="23.96"/><rect class="cls-1" x="199.93" y="407.44" width="39.96" height="23.96"/><rect class="cls-1" x="239.89" y="407.44" width="39.96" height="23.96"/><rect class="cls-1" x="279.85" y="407.44" width="39.96" height="23.96"/><rect class="cls-1" x="319.81" y="407.44" width="39.96" height="23.96"/><rect class="cls-1" x="359.77" y="407.44" width="39.96" height="23.96"/><rect class="cls-1" x="399.73" y="407.44" width="39.96" height="23.96"/><rect class="cls-1" x="439.68" y="407.44" width="39.96" height="23.96"/><rect class="cls-1" x="479.64" y="407.44" width="39.96" height="23.96"/><rect class="cls-1" x="519.6" y="407.44" width="39.96" height="23.96"/><rect class="cls-1" x="559.57" y="407.44" width="39.96" height="23.96"/><rect class="cls-1" x="599.52" y="407.44" width="39.96" height="23.96"/><rect class="cls-1" x="639.49" y="407.44" width="39.96" height="23.96"/><rect class="cls-1" x="679.44" y="407.44" width="39.96" height="23.96"/><rect class="cls-1" x="719.41" y="407.44" width="39.96" height="23.96"/><rect class="cls-1" x="759.36" y="407.44" width="39.96" height="23.96"/><rect class="cls-1" x="799.33" y="407.44" width="39.96" height="23.96"/><rect class="cls-1" x="839.28" y="407.44" width="39.96" height="23.96"/><rect class="cls-1" x="879.25" y="407.44" width="39.96" height="23.96"/><rect class="cls-1" x="919.2" y="407.44" width="39.96" height="23.96"/><rect class="cls-1" x="959.17" y="407.44" width="39.96" height="23.96"/><rect class="cls-1" x="0.13" y="431.41" width="39.96" height="23.96"/><rect class="cls-1" x="40.09" y="431.41" width="39.96" height="23.96"/><rect class="cls-1" x="80.05" y="431.41" width="39.96" height="23.96"/><rect class="cls-1" x="120.01" y="431.41" width="39.96" height="23.96"/><rect class="cls-1" x="159.97" y="431.41" width="39.96" height="23.96"/><rect class="cls-1" x="199.93" y="431.41" width="39.96" height="23.96"/><rect class="cls-1" x="239.89" y="431.41" width="39.96" height="23.96"/><rect class="cls-1" x="279.85" y="431.41" width="39.96" height="23.96"/><rect class="cls-1" x="319.81" y="431.41" width="39.96" height="23.96"/><rect class="cls-1" x="359.77" y="431.41" width="39.96" height="23.96"/><rect class="cls-1" x="399.73" y="431.41" width="39.96" height="23.96"/><rect class="cls-1" x="439.68" y="431.41" width="39.96" height="23.96"/><rect class="cls-1" x="479.64" y="431.41" width="39.96" height="23.96"/><rect class="cls-1" x="519.6" y="431.41" width="39.96" height="23.96"/><rect class="cls-1" x="559.57" y="431.41" width="39.96" height="23.96"/><rect class="cls-1" x="599.52" y="431.41" width="39.96" height="23.96"/><rect class="cls-1" x="639.49" y="431.41" width="39.96" height="23.96"/><rect class="cls-1" x="679.44" y="431.41" width="39.96" height="23.96"/><rect class="cls-1" x="719.41" y="431.41" width="39.96" height="23.96"/><rect class="cls-1" x="759.36" y="431.41" width="39.96" height="23.96"/><rect class="cls-1" x="799.33" y="431.41" width="39.96" height="23.96"/><rect class="cls-1" x="839.28" y="431.41" width="39.96" height="23.96"/><rect class="cls-1" x="879.25" y="431.41" width="39.96" height="23.96"/><rect class="cls-1" x="919.2" y="431.41" width="39.96" height="23.96"/><rect class="cls-1" x="959.17" y="431.41" width="39.96" height="23.96"/><rect class="cls-1" x="0.13" y="455.36" width="39.96" height="23.96"/><rect class="cls-1" x="40.09" y="455.36" width="39.96" height="23.96"/><rect class="cls-1" x="80.05" y="455.36" width="39.96" height="23.96"/><rect class="cls-1" x="120.01" y="455.36" width="39.96" height="23.96"/><rect class="cls-1" x="159.97" y="455.36" width="39.96" height="23.96"/><rect class="cls-1" x="199.93" y="455.36" width="39.96" height="23.96"/><rect class="cls-1" x="239.89" y="455.36" width="39.96" height="23.96"/><rect class="cls-1" x="279.85" y="455.36" width="39.96" height="23.96"/><rect class="cls-1" x="319.81" y="455.36" width="39.96" height="23.96"/><rect class="cls-1" x="359.77" y="455.36" width="39.96" height="23.96"/><rect class="cls-1" x="399.73" y="455.36" width="39.96" height="23.96"/><rect class="cls-1" x="439.68" y="455.36" width="39.96" height="23.96"/><rect class="cls-1" x="479.64" y="455.36" width="39.96" height="23.96"/><rect class="cls-1" x="519.6" y="455.36" width="39.96" height="23.96"/><rect class="cls-1" x="559.57" y="455.36" width="39.96" height="23.96"/><rect class="cls-1" x="599.52" y="455.36" width="39.96" height="23.96"/><rect class="cls-1" x="639.49" y="455.36" width="39.96" height="23.96"/><rect class="cls-1" x="679.44" y="455.36" width="39.96" height="23.96"/><rect class="cls-1" x="719.41" y="455.36" width="39.96" height="23.96"/><rect class="cls-1" x="759.36" y="455.36" width="39.96" height="23.96"/><rect class="cls-1" x="799.33" y="455.36" width="39.96" height="23.96"/><rect class="cls-1" x="839.28" y="455.36" width="39.96" height="23.96"/><rect class="cls-1" x="879.25" y="455.36" width="39.96" height="23.96"/><rect class="cls-1" x="919.2" y="455.36" width="39.96" height="23.96"/><rect class="cls-1" x="959.17" y="455.36" width="39.96" height="23.96"/><rect class="cls-1" x="0.13" y="479.33" width="39.96" height="23.96"/><rect class="cls-1" x="40.09" y="479.33" width="39.96" height="23.96"/><rect class="cls-1" x="80.05" y="479.33" width="39.96" height="23.96"/><rect class="cls-1" x="120.01" y="479.33" width="39.96" height="23.96"/><rect class="cls-1" x="159.97" y="479.33" width="39.96" height="23.96"/><rect class="cls-1" x="199.93" y="479.33" width="39.96" height="23.96"/><rect class="cls-1" x="239.89" y="479.33" width="39.96" height="23.96"/><rect class="cls-1" x="279.85" y="479.33" width="39.96" height="23.96"/><rect class="cls-1" x="319.81" y="479.33" width="39.96" height="23.96"/><rect class="cls-1" x="359.77" y="479.33" width="39.96" height="23.96"/><rect class="cls-1" x="399.73" y="479.33" width="39.96" height="23.96"/><rect class="cls-1" x="439.68" y="479.33" width="39.96" height="23.96"/><rect class="cls-1" x="479.64" y="479.33" width="39.96" height="23.96"/><rect class="cls-1" x="519.6" y="479.33" width="39.96" height="23.96"/><rect class="cls-1" x="559.57" y="479.33" width="39.96" height="23.96"/><rect class="cls-1" x="599.52" y="479.33" width="39.96" height="23.96"/><rect class="cls-1" x="639.49" y="479.33" width="39.96" height="23.96"/><rect class="cls-1" x="679.44" y="479.33" width="39.96" height="23.96"/><rect class="cls-1" x="719.41" y="479.33" width="39.96" height="23.96"/><rect class="cls-1" x="759.36" y="479.33" width="39.96" height="23.96"/><rect class="cls-1" x="799.33" y="479.33" width="39.96" height="23.96"/><rect class="cls-1" x="839.28" y="479.33" width="39.96" height="23.96"/><rect class="cls-1" x="879.25" y="479.33" width="39.96" height="23.96"/><rect class="cls-1" x="919.2" y="479.33" width="39.96" height="23.96"/><rect class="cls-1" x="959.17" y="479.33" width="39.96" height="23.96"/><rect class="cls-1" x="0.13" y="503.28" width="39.96" height="23.96"/><rect class="cls-1" x="40.09" y="503.28" width="39.96" height="23.96"/><rect class="cls-1" x="80.05" y="503.28" width="39.96" height="23.96"/><rect class="cls-1" x="120.01" y="503.28" width="39.96" height="23.96"/><rect class="cls-1" x="159.97" y="503.28" width="39.96" height="23.96"/><rect class="cls-1" x="199.93" y="503.28" width="39.96" height="23.96"/><rect class="cls-1" x="239.89" y="503.28" width="39.96" height="23.96"/><rect class="cls-1" x="279.85" y="503.28" width="39.96" height="23.96"/><rect class="cls-1" x="319.81" y="503.28" width="39.96" height="23.96"/><rect class="cls-1" x="359.77" y="503.28" width="39.96" height="23.96"/><rect class="cls-1" x="399.73" y="503.28" width="39.96" height="23.96"/><rect class="cls-1" x="439.68" y="503.28" width="39.96" height="23.96"/><rect class="cls-1" x="479.64" y="503.28" width="39.96" height="23.96"/><rect class="cls-1" x="519.6" y="503.28" width="39.96" height="23.96"/><rect class="cls-1" x="559.57" y="503.28" width="39.96" height="23.96"/><rect class="cls-1" x="599.52" y="503.28" width="39.96" height="23.96"/><rect class="cls-1" x="639.49" y="503.28" width="39.96" height="23.96"/><rect class="cls-1" x="679.44" y="503.28" width="39.96" height="23.96"/><rect class="cls-1" x="719.41" y="503.28" width="39.96" height="23.96"/><rect class="cls-1" x="759.36" y="503.28" width="39.96" height="23.96"/><rect class="cls-1" x="799.33" y="503.28" width="39.96" height="23.96"/><rect class="cls-1" x="839.28" y="503.28" width="39.96" height="23.96"/><rect class="cls-1" x="879.25" y="503.28" width="39.96" height="23.96"/><rect class="cls-1" x="919.2" y="503.28" width="39.96" height="23.96"/><rect class="cls-1" x="959.17" y="503.28" width="39.96" height="23.96"/><rect class="cls-1" x="0.13" y="527.24" width="39.96" height="23.96"/><rect class="cls-1" x="40.09" y="527.24" width="39.96" height="23.96"/><rect class="cls-1" x="80.05" y="527.24" width="39.96" height="23.96"/><rect class="cls-1" x="120.01" y="527.24" width="39.96" height="23.96"/><rect class="cls-1" x="159.97" y="527.24" width="39.96" height="23.96"/><rect class="cls-1" x="199.93" y="527.24" width="39.96" height="23.96"/><rect class="cls-1" x="239.89" y="527.24" width="39.96" height="23.96"/><rect class="cls-1" x="279.85" y="527.24" width="39.96" height="23.96"/><rect class="cls-1" x="319.81" y="527.24" width="39.96" height="23.96"/><rect class="cls-1" x="359.77" y="527.24" width="39.96" height="23.96"/><rect class="cls-1" x="399.73" y="527.24" width="39.96" height="23.96"/><rect class="cls-1" x="439.68" y="527.24" width="39.96" height="23.96"/><rect class="cls-1" x="479.64" y="527.24" width="39.96" height="23.96"/><rect class="cls-1" x="519.6" y="527.24" width="39.96" height="23.96"/><rect class="cls-1" x="559.57" y="527.24" width="39.96" height="23.96"/><rect class="cls-1" x="599.52" y="527.24" width="39.96" height="23.96"/><rect class="cls-1" x="639.49" y="527.24" width="39.96" height="23.96"/><rect class="cls-1" x="679.44" y="527.24" width="39.96" height="23.96"/><rect class="cls-1" x="719.41" y="527.24" width="39.96" height="23.96"/><rect class="cls-1" x="759.36" y="527.24" width="39.96" height="23.96"/><rect class="cls-1" x="799.33" y="527.24" width="39.96" height="23.96"/><rect class="cls-1" x="839.28" y="527.24" width="39.96" height="23.96"/><rect class="cls-1" x="879.25" y="527.24" width="39.96" height="23.96"/><rect class="cls-1" x="919.2" y="527.24" width="39.96" height="23.96"/><rect class="cls-1" x="959.17" y="527.24" width="39.96" height="23.96"/><rect class="cls-1" x="0.13" y="551.2" width="39.96" height="23.96"/><rect class="cls-1" x="40.09" y="551.2" width="39.96" height="23.96"/><rect class="cls-1" x="80.05" y="551.2" width="39.96" height="23.96"/><rect class="cls-1" x="120.01" y="551.2" width="39.96" height="23.96"/><rect class="cls-1" x="159.97" y="551.2" width="39.96" height="23.96"/><rect class="cls-1" x="199.93" y="551.2" width="39.96" height="23.96"/><rect class="cls-1" x="239.89" y="551.2" width="39.96" height="23.96"/><rect class="cls-1" x="279.85" y="551.2" width="39.96" height="23.96"/><rect class="cls-1" x="319.81" y="551.2" width="39.96" height="23.96"/><rect class="cls-1" x="359.77" y="551.2" width="39.96" height="23.96"/><rect class="cls-1" x="399.73" y="551.2" width="39.96" height="23.96"/><rect class="cls-1" x="439.68" y="551.2" width="39.96" height="23.96"/><rect class="cls-1" x="479.64" y="551.2" width="39.96" height="23.96"/><rect class="cls-1" x="519.6" y="551.2" width="39.96" height="23.96"/><rect class="cls-1" x="559.57" y="551.2" width="39.96" height="23.96"/><rect class="cls-1" x="599.52" y="551.2" width="39.96" height="23.96"/><rect class="cls-1" x="639.49" y="551.2" width="39.96" height="23.96"/><rect class="cls-1" x="679.44" y="551.2" width="39.96" height="23.96"/><rect class="cls-1" x="719.41" y="551.2" width="39.96" height="23.96"/><rect class="cls-1" x="759.36" y="551.2" width="39.96" height="23.96"/><rect class="cls-1" x="799.33" y="551.2" width="39.96" height="23.96"/><rect class="cls-1" x="839.28" y="551.2" width="39.96" height="23.96"/><rect class="cls-1" x="879.25" y="551.2" width="39.96" height="23.96"/><rect class="cls-1" x="919.2" y="551.2" width="39.96" height="23.96"/><rect class="cls-1" x="959.17" y="551.2" width="39.96" height="23.96"/><rect class="cls-1" x="0.13" y="575.17" width="39.96" height="23.96"/><rect class="cls-1" x="40.09" y="575.17" width="39.96" height="23.96"/><rect class="cls-1" x="80.05" y="575.17" width="39.96" height="23.96"/><rect class="cls-1" x="120.01" y="575.17" width="39.96" height="23.96"/><rect class="cls-1" x="159.97" y="575.17" width="39.96" height="23.96"/><rect class="cls-1" x="199.93" y="575.17" width="39.96" height="23.96"/><rect class="cls-1" x="239.89" y="575.17" width="39.96" height="23.96"/><rect class="cls-1" x="279.85" y="575.17" width="39.96" height="23.96"/><rect class="cls-1" x="319.81" y="575.17" width="39.96" height="23.96"/><rect class="cls-1" x="359.77" y="575.17" width="39.96" height="23.96"/><rect class="cls-1" x="399.73" y="575.17" width="39.96" height="23.96"/><rect class="cls-1" x="439.68" y="575.17" width="39.96" height="23.96"/><rect class="cls-1" x="479.64" y="575.17" width="39.96" height="23.96"/><rect class="cls-1" x="519.6" y="575.17" width="39.96" height="23.96"/><rect class="cls-1" x="559.57" y="575.17" width="39.96" height="23.96"/><rect class="cls-1" x="599.52" y="575.17" width="39.96" height="23.96"/><rect class="cls-1" x="639.49" y="575.17" width="39.96" height="23.96"/><rect class="cls-1" x="679.44" y="575.17" width="39.96" height="23.96"/><rect class="cls-1" x="719.41" y="575.17" width="39.96" height="23.96"/><rect class="cls-1" x="759.36" y="575.17" width="39.96" height="23.96"/><rect class="cls-1" x="799.33" y="575.17" width="39.96" height="23.96"/><rect class="cls-1" x="839.28" y="575.17" width="39.96" height="23.96"/><rect class="cls-1" x="879.25" y="575.17" width="39.96" height="23.96"/><rect class="cls-1" x="919.2" y="575.17" width="39.96" height="23.96"/><rect class="cls-1" x="959.17" y="575.17" width="39.96" height="23.96"/></svg>